<mxfile host="app.diagrams.net" modified="2023-11-01T15:48:37.123Z" agent="Mozilla/5.0 (Windows NT 10.0; Win64; x64) AppleWebKit/537.36 (KHTML, like Gecko) Chrome/118.0.0.0 Safari/537.36 Edg/118.0.2088.76" etag="ifZoXOGHqm1LmWnduPlS" version="22.0.8" type="github">
  <diagram name="Page-1" id="JyTczidy37ucf90NlKJn">
    <mxGraphModel dx="786" dy="513" grid="1" gridSize="10" guides="1" tooltips="1" connect="1" arrows="1" fold="1" page="1" pageScale="1" pageWidth="827" pageHeight="1169" math="0" shadow="0">
      <root>
        <mxCell id="0" />
        <mxCell id="1" parent="0" />
        <mxCell id="L-33CMSW8x2mSj1FouU--1" value="" style="rounded=0;whiteSpace=wrap;html=1;" vertex="1" parent="1">
          <mxGeometry x="330" y="210" width="10" height="120" as="geometry" />
        </mxCell>
        <mxCell id="L-33CMSW8x2mSj1FouU--2" value="obs" style="text;strokeColor=none;align=center;fillColor=none;html=1;verticalAlign=middle;whiteSpace=wrap;rounded=0;" vertex="1" parent="1">
          <mxGeometry x="190" y="240" width="60" height="30" as="geometry" />
        </mxCell>
        <mxCell id="L-33CMSW8x2mSj1FouU--4" value="" style="endArrow=classic;html=1;rounded=0;entryX=-0.2;entryY=0.389;entryDx=0;entryDy=0;entryPerimeter=0;" edge="1" parent="1" target="L-33CMSW8x2mSj1FouU--1">
          <mxGeometry width="50" height="50" relative="1" as="geometry">
            <mxPoint x="250" y="257" as="sourcePoint" />
            <mxPoint x="290" y="230" as="targetPoint" />
          </mxGeometry>
        </mxCell>
        <mxCell id="L-33CMSW8x2mSj1FouU--5" value="mlp_extractor" style="text;strokeColor=none;align=center;fillColor=none;html=1;verticalAlign=middle;whiteSpace=wrap;rounded=0;" vertex="1" parent="1">
          <mxGeometry x="260" y="230" width="60" height="30" as="geometry" />
        </mxCell>
      </root>
    </mxGraphModel>
  </diagram>
</mxfile>
